<svg width="3474" height="985" xmlns="http://www.w3.org/2000/svg" xmlns:xlink="http://www.w3.org/1999/xlink" xml:space="preserve" overflow="hidden"><defs><clipPath id="clip0"><rect x="463" y="498" width="3474" height="985"/></clipPath><clipPath id="clip1"><rect x="3055" y="573" width="881" height="909"/></clipPath><clipPath id="clip2"><rect x="3055" y="573" width="881" height="909"/></clipPath><clipPath id="clip3"><rect x="3055" y="573" width="881" height="909"/></clipPath><clipPath id="clip4"><rect x="3055" y="573" width="881" height="909"/></clipPath></defs><g clip-path="url(#clip0)" transform="translate(-463 -498)"><rect x="463" y="573" width="1354" height="845" fill="#FFFFFF"/><g><path d="M718.5 1274.54 1743.5 1274.54M718.5 1246.54 1743.5 1246.54M718.5 1217.54 1743.5 1217.54M718.5 1189.54 1743.5 1189.54M718.5 1131.54 1743.5 1131.54M718.5 1103.54 1743.5 1103.54M718.5 1074.54 1743.5 1074.54M718.5 1046.53 1743.5 1046.53M718.5 988.533 1743.5 988.533M718.5 960.532 1743.5 960.532M718.5 931.531 1743.5 931.531M718.5 902.53 1743.5 902.53M718.5 845.528 1743.5 845.528M718.5 817.527 1743.5 817.527M718.5 788.526 1743.5 788.526M718.5 759.525 1743.5 759.525" stroke="#F2F2F2" stroke-width="3.4375" stroke-linejoin="round" stroke-miterlimit="10" fill="none"/></g><g><path d="M718.5 1160.54 1743.5 1160.54M718.5 1017.53 1743.5 1017.53M718.5 874.529 1743.5 874.529M718.5 731.5 1743.5 731.5" stroke="#D9D9D9" stroke-width="3.4375" stroke-linejoin="round" stroke-miterlimit="10" fill="none"/></g><g><path d="M718.5 731.5 718.5 1303.5M1060.53 731.5 1060.53 1303.5M1401.55 731.5 1401.55 1303.5M1743.5 731.5 1743.5 1303.5" stroke="#D9D9D9" stroke-width="3.4375" stroke-linejoin="round" stroke-miterlimit="10" fill="none"/></g><g><path d="M756.025 1228.04 834.027 1228.04 834.027 1304 756.025 1304ZM1097.04 1252.04 1175.04 1252.04 1175.04 1304 1097.04 1304ZM1439.05 866.028 1517.05 866.028 1517.05 1304 1439.05 1304Z" fill="#0F4E6A"/></g><g><path d="M850.028 1192.04 928.03 1192.04 928.03 1304 850.028 1304ZM1192.04 1223.04 1270.04 1223.04 1270.04 1304 1192.04 1304ZM1533.05 883.029 1611.05 883.029 1611.05 1304 1533.05 1304Z" fill="#156082"/></g><g><path d="M945.031 1232.04 1023.03 1232.04 1023.03 1304 945.031 1304ZM1286.04 1294.04 1364.04 1294.04 1364.04 1304 1286.04 1304ZM1628.05 869.029 1706.06 869.029 1706.06 1304 1628.05 1304Z" fill="#A1AFBB"/></g><g><path d="M718.5 1303.5 1743.5 1303.5" stroke="#D9D9D9" stroke-width="3.4375" stroke-linejoin="round" stroke-miterlimit="10" fill="none" fill-rule="evenodd"/></g><g><text font-family="Aptos,Aptos_MSFontService,sans-serif" font-weight="400" font-size="48" transform="matrix(1 0 0 1 608.904 1317)">0.0</text></g><g><text font-family="Aptos,Aptos_MSFontService,sans-serif" font-weight="400" font-size="48" transform="matrix(1 0 0 1 608.904 1173)">5.0</text></g><g><text font-family="Aptos,Aptos_MSFontService,sans-serif" font-weight="400" font-size="48" transform="matrix(1 0 0 1 583.192 1030)">10.0</text></g><g><text font-family="Aptos,Aptos_MSFontService,sans-serif" font-weight="400" font-size="48" transform="matrix(1 0 0 1 583.192 887)">15.0</text></g><g><text font-family="Aptos,Aptos_MSFontService,sans-serif" font-weight="400" font-size="48" transform="matrix(1 0 0 1 583.192 744)">20.0</text></g><g><text font-family="Aptos,Aptos_MSFontService,sans-serif" font-weight="400" font-size="48" transform="matrix(1 0 0 1 855.751 1379)">MB</text></g><g><text font-family="Aptos,Aptos_MSFontService,sans-serif" font-weight="400" font-size="48" transform="matrix(1 0 0 1 1204.28 1379)">LB</text></g><g><text font-family="Aptos,Aptos_MSFontService,sans-serif" font-weight="400" font-size="48" transform="matrix(1 0 0 1 1489.09 1379)">LB_ODT</text></g><g><text font-family="Aptos,Aptos_MSFontService,sans-serif" font-weight="400" font-size="48" transform="matrix(6.12323e-17 -1 1 6.12323e-17 555.692 1172)">Pos Error [mm]</text></g><g><rect x="869" y="630" width="27.0002" height="26.9998" fill="#0F4E6A"/></g><g><text font-family="Aptos,Aptos_MSFontService,sans-serif" font-weight="400" font-size="48" transform="matrix(1 0 0 1 907.11 657)">PPO</text></g><g><rect x="1039" y="630" width="25.9998" height="26.9998" fill="#156082"/></g><g><text font-family="Aptos,Aptos_MSFontService,sans-serif" font-weight="400" font-size="48" transform="matrix(1 0 0 1 1076.91 657)">ACT</text></g><g><rect x="1203" y="630" width="25.9998" height="26.9998" fill="#A1AFBB"/></g><g><text font-family="Aptos,Aptos_MSFontService,sans-serif" font-weight="400" font-size="48" transform="matrix(1 0 0 1 1240.64 657)">Diffusion</text></g><g><path d="M1989.5 1289.54 2985.5 1289.54M1989.5 1272.54 2985.5 1272.54M1989.5 1256.54 2985.5 1256.54M1989.5 1240.54 2985.5 1240.54M1989.5 1207.54 2985.5 1207.54M1989.5 1190.54 2985.5 1190.54M1989.5 1174.54 2985.5 1174.54M1989.5 1157.54 2985.5 1157.54M1989.5 1125.54 2985.5 1125.54M1989.5 1108.54 2985.5 1108.54M1989.5 1092.54 2985.5 1092.54M1989.5 1075.54 2985.5 1075.54M1989.5 1043.53 2985.5 1043.53M1989.5 1026.53 2985.5 1026.53M1989.5 1010.53 2985.5 1010.53M1989.5 993.533 2985.5 993.533M1989.5 961.532 2985.5 961.532M1989.5 944.531 2985.5 944.531M1989.5 928.531 2985.5 928.531M1989.5 911.53 2985.5 911.53M1989.5 878.529 2985.5 878.529M1989.5 862.528 2985.5 862.528M1989.5 846.528 2985.5 846.528M1989.5 829.527 2985.5 829.527M1989.5 796.526 2985.5 796.526M1989.5 780.526 2985.5 780.526M1989.5 764.525 2985.5 764.525M1989.5 747.525 2985.5 747.525" stroke="#F2F2F2" stroke-width="3.4375" stroke-linejoin="round" stroke-miterlimit="10" fill="none"/></g><g><path d="M1989.5 1223.54 2985.5 1223.54M1989.5 1141.54 2985.5 1141.54M1989.5 1059.53 2985.5 1059.53M1989.5 977.532 2985.5 977.532M1989.5 895.53 2985.5 895.53M1989.5 813.527 2985.5 813.527M1989.5 731.5 2985.5 731.5" stroke="#D9D9D9" stroke-width="3.4375" stroke-linejoin="round" stroke-miterlimit="10" fill="none"/></g><g><path d="M1989.5 731.5 1989.5 1305.5M2321.58 731.5 2321.58 1305.5M2653.59 731.5 2653.59 1305.5M2985.5 731.5 2985.5 1305.5" stroke="#D9D9D9" stroke-width="3.4375" stroke-linejoin="round" stroke-miterlimit="10" fill="none"/></g><g><path d="M2025.07 1072.04 2101.07 1072.04 2101.07 1306 2025.07 1306ZM2357.08 1007.03 2433.08 1007.03 2433.08 1306 2357.08 1306ZM2690.09 834.027 2766.09 834.027 2766.09 1306 2690.09 1306Z" fill="#0F4E6A"/></g><g><path d="M2117.07 966.032 2193.07 966.032 2193.07 1306 2117.07 1306ZM2449.08 960.031 2525.08 960.031 2525.08 1306 2449.08 1306ZM2782.09 863.028 2858.09 863.028 2858.09 1306 2782.09 1306Z" fill="#156082"/></g><g><path d="M2209.07 962.032 2285.07 962.032 2285.07 1306 2209.07 1306ZM2541.08 954.031 2617.09 954.031 2617.09 1306 2541.08 1306ZM2874.09 875.029 2950.1 875.029 2950.1 1306 2874.09 1306Z" fill="#A1AFBB"/></g><g><path d="M1989.5 1305.5 2985.5 1305.5" stroke="#D9D9D9" stroke-width="3.4375" stroke-linejoin="round" stroke-miterlimit="10" fill="none" fill-rule="evenodd"/></g><g><text font-family="Aptos,Aptos_MSFontService,sans-serif" font-weight="400" font-size="48" transform="matrix(1 0 0 1 1879.66 1319)">0.0</text></g><g><text font-family="Aptos,Aptos_MSFontService,sans-serif" font-weight="400" font-size="48" transform="matrix(1 0 0 1 1879.66 1237)">2.0</text></g><g><text font-family="Aptos,Aptos_MSFontService,sans-serif" font-weight="400" font-size="48" transform="matrix(1 0 0 1 1879.66 1155)">4.0</text></g><g><text font-family="Aptos,Aptos_MSFontService,sans-serif" font-weight="400" font-size="48" transform="matrix(1 0 0 1 1879.66 1073)">6.0</text></g><g><text font-family="Aptos,Aptos_MSFontService,sans-serif" font-weight="400" font-size="48" transform="matrix(1 0 0 1 1879.66 990)">8.0</text></g><g><text font-family="Aptos,Aptos_MSFontService,sans-serif" font-weight="400" font-size="48" transform="matrix(1 0 0 1 1853.95 908)">10.0</text></g><g><text font-family="Aptos,Aptos_MSFontService,sans-serif" font-weight="400" font-size="48" transform="matrix(1 0 0 1 1853.95 826)">12.0</text></g><g><text font-family="Aptos,Aptos_MSFontService,sans-serif" font-weight="400" font-size="48" transform="matrix(1 0 0 1 1853.95 744)">14.0</text></g><g><text font-family="Aptos,Aptos_MSFontService,sans-serif" font-weight="400" font-size="48" transform="matrix(1 0 0 1 2121.82 1381)">MB</text></g><g><text font-family="Aptos,Aptos_MSFontService,sans-serif" font-weight="400" font-size="48" transform="matrix(1 0 0 1 2460.97 1381)">LB</text></g><g><text font-family="Aptos,Aptos_MSFontService,sans-serif" font-weight="400" font-size="48" transform="matrix(1 0 0 1 2736.41 1381)">LB_ODT</text></g><g><text font-family="Aptos,Aptos_MSFontService,sans-serif" font-weight="400" font-size="48" transform="matrix(6.12323e-17 -1 1 6.12323e-17 1837.66 1181)">Angle Err [deg]</text></g><g><rect x="2147" y="630" width="25.9998" height="26.9998" fill="#0F4E6A"/></g><g><text font-family="Aptos,Aptos_MSFontService,sans-serif" font-weight="400" font-size="48" transform="matrix(1 0 0 1 2184.53 657)">PPO</text></g><g><rect x="2316" y="630" width="27.0002" height="26.9998" fill="#156082"/></g><g><text font-family="Aptos,Aptos_MSFontService,sans-serif" font-weight="400" font-size="48" transform="matrix(1 0 0 1 2354.33 657)">ACT</text></g><g><rect x="2480" y="630" width="26.9998" height="26.9998" fill="#A1AFBB"/></g><g><text font-family="Aptos,Aptos_MSFontService,sans-serif" font-weight="400" font-size="48" transform="matrix(1 0 0 1 2518.06 657)">Diffusion</text></g><text font-family="Aptos,Aptos_MSFontService,sans-serif" font-weight="400" font-size="55" transform="matrix(1 0 0 1 1688.79 566)">Navigation</text><text font-family="Aptos,Aptos_MSFontService,sans-serif" font-weight="400" font-size="55" transform="matrix(1 0 0 1 3353.35 566)">Reconstruction</text><rect x="3055" y="573" width="882" height="910" fill="#FFFFFF"/><g clip-path="url(#clip1)"><path d="M3171.5 1287.54 3936.5 1287.54M3171.5 1275.54 3936.5 1275.54M3171.5 1263.54 3936.5 1263.54M3171.5 1250.54 3936.5 1250.54M3171.5 1225.54 3936.5 1225.54M3171.5 1213.54 3936.5 1213.54M3171.5 1201.54 3936.5 1201.54M3171.5 1188.54 3936.5 1188.54M3171.5 1164.54 3936.5 1164.54M3171.5 1151.54 3936.5 1151.54M3171.5 1139.54 3936.5 1139.54M3171.5 1127.54 3936.5 1127.54M3171.5 1102.54 3936.5 1102.54M3171.5 1089.54 3936.5 1089.54M3171.5 1077.54 3936.5 1077.54M3171.5 1065.54 3936.5 1065.54M3171.5 1040.53 3936.5 1040.53M3171.5 1028.53 3936.5 1028.53M3171.5 1015.53 3936.5 1015.53M3171.5 1003.53 3936.5 1003.53M3171.5 978.532 3936.5 978.532M3171.5 966.532 3936.5 966.532M3171.5 953.531 3936.5 953.531M3171.5 941.531 3936.5 941.531M3171.5 916.53 3936.5 916.53M3171.5 904.53 3936.5 904.53M3171.5 891.529 3936.5 891.529M3171.5 879.529 3936.5 879.529M3171.5 854.528 3936.5 854.528M3171.5 842.528 3936.5 842.528M3171.5 830.527 3936.5 830.527M3171.5 817.527 3936.5 817.527M3171.5 793.526 3936.5 793.526M3171.5 780.526 3936.5 780.526M3171.5 768.525 3936.5 768.525M3171.5 755.525 3936.5 755.525" stroke="#F2F2F2" stroke-width="3.4375" stroke-linejoin="round" stroke-miterlimit="10" fill="none"/></g><g clip-path="url(#clip2)"><path d="M3171.5 1238.54 3936.5 1238.54M3171.5 1176.54 3936.5 1176.54M3171.5 1114.54 3936.5 1114.54M3171.5 1052.53 3936.5 1052.53M3171.5 990.533 3936.5 990.533M3171.5 929.531 3936.5 929.531M3171.5 867.529 3936.5 867.529M3171.5 805.527 3936.5 805.527M3171.5 743.5 3936.5 743.5" stroke="#D9D9D9" stroke-width="3.4375" stroke-linejoin="round" stroke-miterlimit="10" fill="none"/></g><g clip-path="url(#clip3)"><path d="M3171.5 743.5 3171.5 1300.5M3426.61 743.5 3426.61 1300.5M3681.62 743.5 3681.62 1300.5M3936.5 743.5 3936.5 1300.5" stroke="#D9D9D9" stroke-width="3.4375" stroke-linejoin="round" stroke-miterlimit="10" fill="none"/></g><g><path d="M3210.11 949.031 3291.11 949.031 3291.11 1300 3210.11 1300ZM3465.11 868.029 3546.12 868.029 3546.12 1300 3465.11 1300ZM3720.12 878.029 3801.12 878.029 3801.12 1300 3720.12 1300Z" fill="#115472"/></g><g><path d="M3308.11 1032.03 3388.11 1032.03 3388.11 1300 3308.11 1300ZM3563.12 795.026 3643.12 795.026 3643.12 1300 3563.12 1300ZM3818.13 807.026 3899.13 807.026 3899.13 1300 3818.13 1300Z" fill="#8599AA"/></g><g clip-path="url(#clip4)"><path d="M3171.5 1300.5 3936.5 1300.5" stroke="#D9D9D9" stroke-width="3.4375" stroke-linejoin="round" stroke-miterlimit="10" fill="none" fill-rule="evenodd"/></g><g><text font-family="Aptos,Aptos_MSFontService,sans-serif" font-weight="400" font-size="48" transform="matrix(1 0 0 1 3062.04 1313)">0.0</text></g><g><text font-family="Aptos,Aptos_MSFontService,sans-serif" font-weight="400" font-size="48" transform="matrix(1 0 0 1 3062.04 1251)">0.1</text></g><g><text font-family="Aptos,Aptos_MSFontService,sans-serif" font-weight="400" font-size="48" transform="matrix(1 0 0 1 3062.04 1190)">0.2</text></g><g><text font-family="Aptos,Aptos_MSFontService,sans-serif" font-weight="400" font-size="48" transform="matrix(1 0 0 1 3062.04 1128)">0.3</text></g><g><text font-family="Aptos,Aptos_MSFontService,sans-serif" font-weight="400" font-size="48" transform="matrix(1 0 0 1 3062.04 1066)">0.4</text></g><g><text font-family="Aptos,Aptos_MSFontService,sans-serif" font-weight="400" font-size="48" transform="matrix(1 0 0 1 3062.04 1004)">0.5</text></g><g><text font-family="Aptos,Aptos_MSFontService,sans-serif" font-weight="400" font-size="48" transform="matrix(1 0 0 1 3062.04 942)">0.6</text></g><g><text font-family="Aptos,Aptos_MSFontService,sans-serif" font-weight="400" font-size="48" transform="matrix(1 0 0 1 3062.04 880)">0.7</text></g><g><text font-family="Aptos,Aptos_MSFontService,sans-serif" font-weight="400" font-size="48" transform="matrix(1 0 0 1 3062.04 818)">0.8</text></g><g><text font-family="Aptos,Aptos_MSFontService,sans-serif" font-weight="400" font-size="48" transform="matrix(1 0 0 1 3062.04 757)">0.9</text></g><g><text font-family="Aptos,Aptos_MSFontService,sans-serif" font-weight="400" font-size="48" transform="matrix(1 0 0 1 3204.59 1375)">coverage</text></g><g><text font-family="Aptos,Aptos_MSFontService,sans-serif" font-weight="400" font-size="48" transform="matrix(1 0 0 1 3251.58 1434)">ratio</text></g><g><text font-family="Aptos,Aptos_MSFontService,sans-serif" font-weight="400" font-size="48" transform="matrix(1 0 0 1 3459.36 1375)">total rot /</text></g><g><text font-family="Aptos,Aptos_MSFontService,sans-serif" font-weight="400" font-size="48" transform="matrix(1 0 0 1 3446.03 1434)">1000 [deg]</text></g><g><text font-family="Aptos,Aptos_MSFontService,sans-serif" font-weight="400" font-size="48" transform="matrix(1 0 0 1 3691.73 1375)">total length</text></g><g><text font-family="Aptos,Aptos_MSFontService,sans-serif" font-weight="400" font-size="48" transform="matrix(1 0 0 1 3697.7 1434)">/ 500 [mm]</text></g><g><rect x="3165" y="630" width="26.0002" height="26.9998" fill="#115472"/></g><g><text font-family="Aptos,Aptos_MSFontService,sans-serif" font-weight="400" font-size="48" transform="matrix(1 0 0 1 3202.62 657)">Submodular PPO</text></g><g><rect x="3618" y="630" width="27.0002" height="26.9998" fill="#8599AA"/></g><g><text font-family="Aptos,Aptos_MSFontService,sans-serif" font-weight="400" font-size="48" transform="matrix(1 0 0 1 3656.35 657)">Heuristic</text></g></g></svg>